ply
format ascii 1.0
element vertex 505
property float x
property float y
property float z
property uchar red
property uchar green
property uchar blue
end_header
-1.1280709505081177 -0.5908211469650269 2.9277989864349365 0 0 0
-1.1079813241958618 -0.5517861247062683 2.905568838119507 0 0 0
-1.0850740671157837 -0.6184858679771423 2.899754524230957 0 0 0
-1.0559828281402588 -0.6457753777503967 2.893538236618042 0 0 0
-1.0559828281402588 -0.6457753777503967 2.893538236618042 0 0 0
-1.0579376220703125 -0.5612959861755371 2.9097208976745605 0 0 0
-1.0508556365966797 -0.6743922233581543 2.8950932025909424 0 0 0
-1.0322730541229248 -0.6601194143295288 2.90004301071167 0 0 0
-1.0134226083755493 -0.5165508389472961 2.872634172439575 0 0 0
-0.9402336478233337 -1.2551723718643188 2.8112828731536865 0 0 0
-0.9429746866226196 -0.49788349866867065 2.8421242237091064 0 0 0
-0.9429746866226196 -0.49788349866867065 2.8421242237091064 0 0 0
-0.899427056312561 -1.5053393840789795 2.718520402908325 0 0 0
-0.899427056312561 -1.5053393840789795 2.718520402908325 0 0 0
-0.9306086897850037 -0.7776389718055725 2.8728368282318115 0 0 0
-0.9356382489204407 -0.6441643834114075 2.892677068710327 0 0 0
-0.899034857749939 -0.5072770118713379 2.8376033306121826 0 0 0
-0.885802149772644 -1.248986005783081 2.7983057498931885 0 0 0
-0.885802149772644 -1.248986005783081 2.7983057498931885 0 0 0
-0.8564305901527405 -0.21914197504520416 2.8869025707244873 0 0 0
-0.8542123436927795 -0.16380402445793152 2.8966293334960938 0 0 0
-0.8400073051452637 -0.6982303857803345 2.8582751750946045 0 0 0
-0.8400073051452637 -0.6982303857803345 2.8582751750946045 0 0 0
-0.8179647922515869 -0.27808719873428345 2.862701177597046 0 0 0
-0.8179647922515869 -0.27808719873428345 2.862701177597046 0 0 0
-0.8125638365745544 -0.1196771115064621 2.875852346420288 0 0 0
-0.8118810653686523 -0.21263092756271362 2.8769190311431885 0 0 0
-0.7931821942329407 -0.51088947057724 2.8218088150024414 0 0 0
-0.7885088920593262 -0.5917232632637024 2.858586549758911 0 0 0
-0.7830870151519775 -0.002608278999105096 2.871246099472046 0 0 0
-0.7754006385803223 -0.22638918459415436 2.8679659366607666 0 0 0
-0.7651168704032898 -0.5621924996376038 2.854323387145996 0 0 0
-0.7640466690063477 -0.052534930408000946 2.8568389415740967 0 0 0
-0.7640466690063477 -0.052534930408000946 2.8568389415740967 0 0 0
-0.7641918659210205 -0.08707165718078613 2.8585963249206543 0 0 0
-0.7513047456741333 -0.4986112713813782 2.810357093811035 0 0 0
-0.7513047456741333 -0.4986112713813782 2.810357093811035 0 0 0
-0.7550017833709717 -0.5783456563949585 2.8536148071289062 0 0 0
-0.7632282376289368 0.01219915971159935 2.8963463306427 0 0 0
-0.740624725818634 -0.5584325194358826 2.8498287200927734 0 0 0
-0.7414517998695374 -0.27333736419677734 2.851177215576172 0 0 0
-0.7414517998695374 -0.27333736419677734 2.851177215576172 0 0 0
-0.7245009541511536 -0.2523234486579895 2.850174903869629 0 0 0
-0.7245009541511536 -0.2523234486579895 2.850174903869629 0 0 0
-0.7156708836555481 -0.29703763127326965 2.832988739013672 0 0 0
-0.7156708836555481 -0.29703763127326965 2.832988739013672 0 0 0
-0.6771194934844971 -1.4482089281082153 2.6774368286132812 0 0 0
-0.6971598863601685 -0.43281978368759155 2.771821975708008 0 0 0
-0.712648868560791 -0.6098083853721619 2.8332443237304688 0 0 0
-0.712648868560791 -0.6098083853721619 2.8332443237304688 0 0 0
-0.7137751579284668 -0.23303863406181335 2.8559837341308594 0 0 0
-0.7137751579284668 -0.23303863406181335 2.8559837341308594 0 0 0
-0.6879203915596008 -0.3785962462425232 2.7769055366516113 0 0 0
-0.7059617638587952 -0.24997994303703308 2.8497703075408936 0 0 0
-0.7071227431297302 -0.21757465600967407 2.8560407161712646 0 0 0
-0.6723816394805908 -1.4088525772094727 2.705120801925659 0 0 0
-0.6843684315681458 -0.4682075083255768 2.7776002883911133 0 0 0
-0.6959627866744995 -0.230918288230896 2.853870153427124 0 0 0
-0.6962425708770752 -0.23040556907653809 2.8556485176086426 0 0 0
-0.6958394050598145 -0.009304584935307503 2.858393669128418 0 0 0
-0.6789581775665283 -0.8585842847824097 2.80426287651062 0 0 0
-0.6583883166313171 -1.3750005960464478 2.721506118774414 0 0 0
-0.6484425067901611 -1.4118528366088867 2.6957743167877197 0 0 0
-0.6703990697860718 -0.7427010536193848 2.8140311241149902 0 0 0
-0.6699969172477722 -0.6121898293495178 2.824498176574707 0 0 0
-0.6722990274429321 -0.23295050859451294 2.8507304191589355 0 0 0
-0.6722990274429321 -0.23295050859451294 2.8507304191589355 0 0 0
-0.665749728679657 -0.5847134590148926 2.8291332721710205 0 0 0
-0.665749728679657 -0.5847134590148926 2.8291332721710205 0 0 0
-0.6654675602912903 -0.5459729433059692 2.833388090133667 0 0 0
-0.6511538624763489 -0.778771162033081 2.7943127155303955 0 0 0
-0.6511538624763489 -0.778771162033081 2.7943127155303955 0 0 0
-0.6348464488983154 -1.3377736806869507 2.7248566150665283 0 0 0
-0.6507477760314941 -0.6402028799057007 2.820070505142212 0 0 0
-0.6284609436988831 -1.307081699371338 2.727210760116577 0 0 0
-0.6127882599830627 -1.4457063674926758 2.677564859390259 0 0 0
-0.5894581079483032 -1.4014761447906494 2.679459571838379 0 0 0
-0.6030616760253906 -0.908139169216156 2.7852303981781006 0 0 0
-0.6037775874137878 -1.0700345039367676 2.785620927810669 0 0 0
-0.6037775874137878 -1.0700345039367676 2.785620927810669 0 0 0
-0.5914919972419739 -0.4533176124095917 2.7527084350585938 0 0 0
-0.5601615905761719 -1.4415234327316284 2.6481590270996094 0 0 0
-0.5669178366661072 -1.3094754219055176 2.712326765060425 0 0 0
-0.5750263929367065 -1.006452202796936 2.765220880508423 0 0 0
-0.5740371942520142 -0.39256370067596436 2.758779287338257 0 0 0
-0.5501350164413452 -1.2760969400405884 2.7108187675476074 0 0 0
-0.5634032487869263 -0.629786491394043 2.7920966148376465 0 0 0
-0.5634032487869263 -0.629786491394043 2.7920966148376465 0 0 0
-0.5380062460899353 -1.404611587524414 2.665027379989624 0 0 0
-0.529977560043335 -1.4582698345184326 2.641578435897827 0 0 0
-0.5324460864067078 -1.4211195707321167 2.65185546875 0 0 0
-0.5548579692840576 -0.5293318629264832 2.799560070037842 0 0 0
-0.5478847026824951 -0.7828403115272522 2.7808690071105957 0 0 0
-0.5471742153167725 -0.07185940444469452 2.79880690574646 0 0 0
-0.5367408394813538 -0.7564213275909424 2.783461332321167 0 0 0
-0.5415403842926025 -0.5576144456863403 2.805403709411621 0 0 0
-0.5372436046600342 -0.6201967597007751 2.795630693435669 0 0 0
-0.5372436046600342 -0.6201967597007751 2.795630693435669 0 0 0
-0.5361789464950562 -0.511476457118988 2.7898592948913574 0 0 0
-0.5299569368362427 -0.7420507073402405 2.7818448543548584 0 0 0
-0.501548707485199 -1.3869787454605103 2.6677627563476562 0 0 0
-0.5169523358345032 -0.8705208897590637 2.7700254917144775 0 0 0
-0.5071926712989807 -0.8325345516204834 2.7621958255767822 0 0 0
-0.5071926712989807 -0.8325345516204834 2.7621958255767822 0 0 0
-0.4817766845226288 -1.4563515186309814 2.6360323429107666 0 0 0
-0.5180178284645081 0.017152834683656693 2.8642215728759766 0 0 0
-0.5477241277694702 0.8006892204284668 3.0373075008392334 0 0 0
-0.4877268970012665 -1.1520651578903198 2.7262749671936035 0 0 0
-0.5266416072845459 0.3214166760444641 2.982785940170288 0 0 0
-0.4798038899898529 -0.9614527225494385 2.7456374168395996 0 0 0
-0.4798038899898529 -0.9614527225494385 2.7456374168395996 0 0 0
-0.48197999596595764 -0.7575330138206482 2.7698309421539307 0 0 0
-0.5254379510879517 0.7856513857841492 3.030468463897705 0 0 0
-0.4624730050563812 -1.3677926063537598 2.6651787757873535 0 0 0
-0.4962441921234131 0.06749200820922852 2.8930113315582275 0 0 0
-0.4657553732395172 -0.605918824672699 2.77912974357605 0 0 0
-0.4417873024940491 -1.2138986587524414 2.7005207538604736 0 0 0
-0.43606874346733093 -0.06315914541482925 2.784970283508301 0 0 0
-0.41185638308525085 -1.3777377605438232 2.6432859897613525 0 0 0
-0.41185638308525085 -1.3777377605438232 2.6432859897613525 0 0 0
-0.41404420137405396 -0.7615700960159302 2.758615255355835 0 0 0
-0.4152829349040985 -0.1547820270061493 2.8093605041503906 0 0 0
-0.43433263897895813 0.46616706252098083 2.96724796295166 0 0 0
-0.39517122507095337 -0.07743824273347855 2.768517017364502 0 0 0
-0.41659876704216003 0.48826920986175537 2.9652600288391113 0 0 0
-0.4084011912345886 0.4123726189136505 2.957214117050171 0 0 0
-0.3880252242088318 0.027456820011138916 2.8128387928009033 0 0 0
-0.3580336272716522 -1.431115746498108 2.602065324783325 0 0 0
-0.3676031529903412 -1.2182116508483887 2.682002067565918 0 0 0
-0.37693753838539124 -0.35737597942352295 2.749711751937866 0 0 0
-0.37693753838539124 -0.35737597942352295 2.749711751937866 0 0 0
-0.35670745372772217 -1.3987892866134644 2.6062848567962646 0 0 0
-0.35670745372772217 -1.3987892866134644 2.6062848567962646 0 0 0
-0.3565157353878021 -0.55350261926651 2.757596492767334 0 0 0
-0.3565157353878021 -0.55350261926651 2.757596492767334 0 0 0
-0.37911710143089294 0.5494292974472046 2.9557864665985107 0 0 0
-0.37432384490966797 0.6322970986366272 2.9646854400634766 0 0 0
-0.34446215629577637 -0.08313825726509094 2.7622432708740234 0 0 0
-0.3343220055103302 -0.5349885821342468 2.7505640983581543 0 0 0
-0.3343220055103302 -0.5349885821342468 2.7505640983581543 0 0 0
-0.3353222906589508 0.0020290715619921684 2.772517681121826 0 0 0
-0.3505019247531891 0.6567889451980591 2.9645636081695557 0 0 0
-0.32435017824172974 -0.5048065185546875 2.741985559463501 0 0 0
-0.3198941648006439 -0.5692088007926941 2.7532434463500977 0 0 0
-0.3198941648006439 -0.5692088007926941 2.7532434463500977 0 0 0
-0.3153497874736786 -0.605755090713501 2.7458388805389404 0 0 0
-0.3375641107559204 0.407945454120636 2.9351248741149902 0 0 0
-0.2925061881542206 -1.3912791013717651 2.5885884761810303 0 0 0
-0.2925061881542206 -1.3912791013717651 2.5885884761810303 0 0 0
-0.29785943031311035 -0.5543408393859863 2.7435715198516846 0 0 0
-0.31419846415519714 0.417033314704895 2.924408197402954 0 0 0
-0.27384814620018005 -1.3989527225494385 2.5792396068573 0 0 0
-0.3036372661590576 0.4761560559272766 2.926365375518799 0 0 0
-0.2743305563926697 -0.5276169180870056 2.7244579792022705 0 0 0
-0.24477095901966095 -1.4068044424057007 2.5723495483398438 0 0 0
-0.25330203771591187 -0.5240172147750854 2.7286081314086914 0 0 0
-0.2508005201816559 -0.5012132525444031 2.718844413757324 0 0 0
-0.24129816889762878 -0.3169002830982208 2.7043583393096924 0 0 0
-0.2291005700826645 -1.4112238883972168 2.5745558738708496 0 0 0
-0.23837275803089142 -0.235013946890831 2.706829309463501 0 0 0
-0.23100803792476654 -0.5365780591964722 2.7177517414093018 0 0 0
-0.21540261805057526 -0.39880505204200745 2.7239296436309814 0 0 0
-0.21079377830028534 -0.5010181665420532 2.7135400772094727 0 0 0
-0.20948411524295807 -0.24738696217536926 2.6969189643859863 0 0 0
-0.2086610049009323 -0.4640308916568756 2.714916706085205 0 0 0
-0.19991587102413177 -0.03532818704843521 2.714486837387085 0 0 0
-0.19991587102413177 -0.03532818704843521 2.714486837387085 0 0 0
-0.18756547570228577 -0.30731233954429626 2.6909115314483643 0 0 0
-0.18702098727226257 -0.2113960236310959 2.699817419052124 0 0 0
-0.18536953628063202 -0.272880882024765 2.6843860149383545 0 0 0
-0.17788942158222198 -1.2955573797225952 2.6060550212860107 0 0 0
-0.17788942158222198 -1.2955573797225952 2.6060550212860107 0 0 0
-0.18381933867931366 -0.47091513872146606 2.710737466812134 0 0 0
-0.18381933867931366 -0.47091513872146606 2.710737466812134 0 0 0
-0.18187813460826874 -0.29100093245506287 2.6845390796661377 0 0 0
-0.1829276978969574 -0.1541922390460968 2.7367334365844727 0 0 0
-0.1829276978969574 -0.1541922390460968 2.7367334365844727 0 0 0
-0.17739802598953247 -0.39122912287712097 2.6982901096343994 0 0 0
-0.1775984764099121 -0.5273991823196411 2.7066104412078857 0 0 0
-0.1775984764099121 -0.5273991823196411 2.7066104412078857 0 0 0
-0.168415367603302 -0.42742758989334106 2.7109644412994385 0 0 0
-0.1598777323961258 -1.2538259029388428 2.6095173358917236 0 0 0
-0.16138753294944763 -0.7058827877044678 2.6998777389526367 0 0 0
-0.16138753294944763 -0.7058827877044678 2.6998777389526367 0 0 0
-0.15579210221767426 -1.6125671863555908 2.6101608276367188 0 0 0
-0.1606336086988449 -0.24078688025474548 2.689063787460327 0 0 0
-0.1501103639602661 -1.4100450277328491 2.548151969909668 0 0 0
-0.15405233204364777 -0.5663563013076782 2.6997153759002686 0 0 0
-0.15405233204364777 -0.5663563013076782 2.6997153759002686 0 0 0
-0.15516610443592072 -0.15318194031715393 2.7266736030578613 0 0 0
-0.13673971593379974 -0.7588292956352234 2.6957359313964844 0 0 0
-0.13673971593379974 -0.7588292956352234 2.6957359313964844 0 0 0
-0.13445498049259186 -1.0828888416290283 2.6658527851104736 0 0 0
-0.13445498049259186 -1.0828888416290283 2.6658527851104736 0 0 0
-0.13134625554084778 -0.3022807240486145 2.678483247756958 0 0 0
-0.13134625554084778 -0.3022807240486145 2.678483247756958 0 0 0
-0.13041916489601135 -0.480246365070343 2.709174633026123 0 0 0
-0.1198202595114708 -0.644381582736969 2.691058397293091 0 0 0
-0.11924008280038834 -0.2718839943408966 2.670825958251953 0 0 0
-0.11277975887060165 -1.294234275817871 2.588259220123291 0 0 0
-0.1163100078701973 -0.4972742795944214 2.702003240585327 0 0 0
-0.10930849611759186 -0.6985325813293457 2.689523220062256 0 0 0
-0.10509992390871048 -0.5163202285766602 2.7004482746124268 0 0 0
-0.10509992390871048 -0.5163202285766602 2.7004482746124268 0 0 0
-0.08683010935783386 -1.3441762924194336 2.5808465480804443 0 0 0
-0.0792604312300682 -0.8887917995452881 2.667361259460449 0 0 0
-0.0759672001004219 -1.3696335554122925 2.5797176361083984 0 0 0
-0.07412418723106384 -0.4907088875770569 2.6768276691436768 0 0 0
-0.06343737989664078 -1.3106244802474976 2.5726499557495117 0 0 0
-0.06343737989664078 -1.3106244802474976 2.5726499557495117 0 0 0
-0.05548572912812233 -0.07936093956232071 2.679696559906006 0 0 0
-0.05116637796163559 -0.8056533932685852 2.660311460494995 0 0 0
-0.05080258846282959 -0.4702797830104828 2.665912628173828 0 0 0
-0.043455153703689575 -1.3588440418243408 2.5740487575531006 0 0 0
-0.04187195748090744 -0.039148323237895966 2.6680819988250732 0 0 0
-0.03941764310002327 -0.8372394442558289 2.654838800430298 0 0 0
-0.03237689658999443 -1.1980705261230469 2.592313289642334 0 0 0
-0.02832108922302723 -0.7691208124160767 2.6668686866760254 0 0 0
-0.02082226611673832 -0.5516948103904724 2.6670472621917725 0 0 0
-0.02082226611673832 -0.5516948103904724 2.6670472621917725 0 0 0
-0.01788952387869358 -0.9842051863670349 2.635364055633545 0 0 0
-0.01788952387869358 -0.9842051863670349 2.635364055633545 0 0 0
-0.012042263522744179 -1.2510967254638672 2.5666069984436035 0 0 0
-0.002290943171828985 -1.1587969064712524 2.601325035095215 0 0 0
-0.002290943171828985 -1.1587969064712524 2.601325035095215 0 0 0
0.0007055460591800511 -0.899812638759613 2.6464569568634033 0 0 0
0.0007055460591800511 -0.899812638759613 2.6464569568634033 0 0 0
7.089508017088519e-06 -0.4611392021179199 2.6426053047180176 0 0 0
0.0021688775159418583 -0.08786427974700928 2.6626358032226562 0 0 0
0.013130761682987213 -0.007141894660890102 2.6504855155944824 0 0 0
0.015253663994371891 -0.036886509507894516 2.6485848426818848 0 0 0
0.02224666438996792 -0.35724470019340515 2.6519880294799805 0 0 0
0.027606939896941185 -0.7457942962646484 2.649167537689209 0 0 0
0.026182185858488083 -1.1359442472457886 2.6041760444641113 0 0 0
0.026182185858488083 -1.1359442472457886 2.6041760444641113 0 0 0
0.03284398466348648 -0.4873255789279938 2.6360411643981934 0 0 0
0.03388627991080284 -0.5257208943367004 2.6359505653381348 0 0 0
0.03388627991080284 -0.5257208943367004 2.6359505653381348 0 0 0
0.039894383400678635 -0.5860002040863037 2.649198293685913 0 0 0
0.039894383400678635 -0.5860002040863037 2.649198293685913 0 0 0
0.04454280436038971 -0.29301396012306213 2.6327974796295166 0 0 0
0.05717260017991066 -0.44335800409317017 2.629401206970215 0 0 0
0.06384389847517014 -0.053617388010025024 2.634972095489502 0 0 0
0.06384389847517014 -0.053617388010025024 2.634972095489502 0 0 0
0.06386440247297287 0.019118882715702057 2.6386191844940186 0 0 0
0.07459326088428497 -0.23207025229930878 2.6270744800567627 0 0 0
0.07991735637187958 -0.5279133319854736 2.6231253147125244 0 0 0
0.08747665584087372 0.6744986772537231 2.8474109172821045 0 0 0
0.08411785960197449 -0.009091582149267197 2.6296229362487793 0 0 0
0.08644229173660278 -0.7950878143310547 2.621077537536621 0 0 0
0.08644229173660278 -0.7950878143310547 2.621077537536621 0 0 0
0.09005603194236755 0.044856902211904526 2.6576755046844482 0 0 0
0.08956953883171082 -0.7334609627723694 2.6298859119415283 0 0 0
0.09499934315681458 -0.4817248284816742 2.618896722793579 0 0 0
0.09644992649555206 -1.4308464527130127 2.5096869468688965 0 0 0
0.11906160414218903 0.5954691171646118 2.813281297683716 0 0 0
0.11787278205156326 -0.030132485553622246 2.6187336444854736 0 0 0
0.1285976767539978 0.6681956648826599 2.8203418254852295 0 0 0
0.12137198448181152 -1.463091492652893 2.475191354751587 0 0 0
0.13698193430900574 -0.4604482352733612 2.612582206726074 0 0 0
0.13698193430900574 -0.4604482352733612 2.612582206726074 0 0 0
0.13193219900131226 -1.439345359802246 2.4818878173828125 0 0 0
0.1434503197669983 -0.7252444624900818 2.6097099781036377 0 0 0
0.1434503197669983 -0.7252444624900818 2.6097099781036377 0 0 0
0.14469707012176514 -1.3338345289230347 2.5092148780822754 0 0 0
0.15605458617210388 -0.45038002729415894 2.6074161529541016 0 0 0
0.15347474813461304 -0.5071758031845093 2.5965769290924072 0 0 0
0.1472826451063156 -1.4650572538375854 2.4744246006011963 0 0 0
0.15666531026363373 -0.3887811005115509 2.6192545890808105 0 0 0
0.15666531026363373 -0.3887811005115509 2.6192545890808105 0 0 0
0.16740776598453522 0.31285202503204346 2.781444787979126 0 0 0
0.1610841453075409 -0.6371855735778809 2.609410047531128 0 0 0
0.1598968207836151 -0.9757112860679626 2.57948637008667 0 0 0
0.1598968207836151 -0.9757112860679626 2.57948637008667 0 0 0
0.16316945850849152 -0.6838433146476746 2.6066911220550537 0 0 0
0.17154482007026672 -0.024616390466690063 2.5980515480041504 0 0 0
0.16328611969947815 -1.5346894264221191 2.446904420852661 0 0 0
0.17522715032100677 -0.47813913226127625 2.5993411540985107 0 0 0
0.2065580040216446 0.3479762077331543 2.76930570602417 0 0 0
0.2065580040216446 0.3479762077331543 2.76930570602417 0 0 0
0.20729918777942657 0.24988743662834167 2.765136241912842 0 0 0
0.19649937748908997 -0.4311440885066986 2.605194568634033 0 0 0
0.2091970294713974 0.3136224150657654 2.7719571590423584 0 0 0
0.2091970294713974 0.3136224150657654 2.7719571590423584 0 0 0
0.2020464539527893 -0.47560644149780273 2.5914008617401123 0 0 0
0.20459462702274323 -0.45391425490379333 2.5996530055999756 0 0 0
0.21597717702388763 -0.5411885976791382 2.5803518295288086 0 0 0
0.2163407802581787 -0.7497051358222961 2.586894989013672 0 0 0
0.23191392421722412 0.3412620425224304 2.770345687866211 0 0 0
0.23191392421722412 0.3412620425224304 2.770345687866211 0 0 0
0.23779861629009247 0.6847038269042969 2.7871246337890625 0 0 0
0.2264939844608307 -0.4266369640827179 2.598447561264038 0 0 0
0.22672127187252045 -0.4976245164871216 2.582176446914673 0 0 0
0.2579173147678375 0.32956284284591675 2.7525906562805176 0 0 0
0.24204547703266144 -0.552966833114624 2.5678584575653076 0 0 0
0.24596622586250305 -0.22959013283252716 2.5790772438049316 0 0 0
0.25408923625946045 -0.4739428162574768 2.5819387435913086 0 0 0
0.25408923625946045 -0.4739428162574768 2.5819387435913086 0 0 0
0.2547509968280792 -0.5125619173049927 2.572002649307251 0 0 0
0.2652159631252289 -0.4111049175262451 2.5921621322631836 0 0 0
0.2652159631252289 -0.4111049175262451 2.5921621322631836 0 0 0
0.2691115140914917 -0.32319486141204834 2.5749785900115967 0 0 0
0.26827096939086914 -0.5678436756134033 2.5628483295440674 0 0 0
0.26827096939086914 -0.5678436756134033 2.5628483295440674 0 0 0
0.2732345759868622 -0.4379085898399353 2.5867156982421875 0 0 0
0.2761272192001343 -0.28396913409233093 2.5743134021759033 0 0 0
0.27573955059051514 -1.027721881866455 2.5580790042877197 0 0 0
0.2846798896789551 -0.18921643495559692 2.569247245788574 0 0 0
0.2953374981880188 -0.36312413215637207 2.577702522277832 0 0 0
0.2953374981880188 -0.36312413215637207 2.577702522277832 0 0 0
0.29617106914520264 -0.47309422492980957 2.5769996643066406 0 0 0
0.3005309998989105 -0.5071334838867188 2.5683236122131348 0 0 0
0.30397844314575195 -0.4296507239341736 2.574561595916748 0 0 0
0.31362384557724 -0.5430654287338257 2.554325580596924 0 0 0
0.3209395110607147 -0.11514367908239365 2.568737268447876 0 0 0
0.3385436236858368 0.1925409585237503 2.704573631286621 0 0 0
0.3249390423297882 -0.44380462169647217 2.5722882747650146 0 0 0
0.3249390423297882 -0.44380462169647217 2.5722882747650146 0 0 0
0.3242959976196289 -0.49802491068840027 2.5632307529449463 0 0 0
0.3242959976196289 -0.49802491068840027 2.5632307529449463 0 0 0
0.3286943733692169 -0.47167477011680603 2.5667030811309814 0 0 0
0.31413573026657104 -1.4780941009521484 2.4123589992523193 0 0 0
0.3401675224304199 -0.40128210186958313 2.56823468208313 0 0 0
0.3400495648384094 -0.7978066205978394 2.545013189315796 0 0 0
0.3400495648384094 -0.7978066205978394 2.545013189315796 0 0 0
0.3656012713909149 0.1874447911977768 2.697054624557495 0 0 0
0.34567609429359436 -0.5376037359237671 2.5474650859832764 0 0 0
0.34859195351600647 -0.4414964020252228 2.5574276447296143 0 0 0
0.3458721339702606 -0.5686027407646179 2.5427443981170654 0 0 0
0.3285122513771057 -1.4960417747497559 2.4090709686279297 0 0 0
0.3331259489059448 -1.4669972658157349 2.4067986011505127 0 0 0
0.35992133617401123 -0.445377916097641 2.5531482696533203 0 0 0
0.36362600326538086 -0.4158356785774231 2.5621726512908936 0 0 0
0.3671729564666748 -0.47338610887527466 2.55861759185791 0 0 0
0.39282581210136414 0.39771711826324463 2.712000846862793 0 0 0
0.3774576783180237 -0.17864201962947845 2.5377302169799805 0 0 0
0.3774576783180237 -0.17864201962947845 2.5377302169799805 0 0 0
0.3759785592556 -0.61285400390625 2.5257105827331543 0 0 0
0.41199928522109985 0.3508756160736084 2.6970672607421875 0 0 0
0.3906630277633667 -0.5529870390892029 2.535719871520996 0 0 0
0.3912030756473541 -0.824357271194458 2.528140068054199 0 0 0
0.3912030756473541 -0.824357271194458 2.528140068054199 0 0 0
0.3711394667625427 -1.488288164138794 2.3910741806030273 0 0 0
0.4213069677352905 0.38170868158340454 2.695328950881958 0 0 0
0.39749202132225037 -0.23039622604846954 2.53171968460083 0 0 0
0.39749202132225037 -0.23039622604846954 2.53171968460083 0 0 0
0.4316655993461609 -0.05209451541304588 2.513782501220703 0 0 0
0.47027698159217834 0.22245565056800842 2.6787197589874268 0 0 0
0.45677968859672546 -0.6602727174758911 2.503941297531128 0 0 0
0.45633652806282043 -0.9894322156906128 2.4927988052368164 0 0 0
0.461204469203949 -0.7371508479118347 2.5085158348083496 0 0 0
0.461204469203949 -0.7371508479118347 2.5085158348083496 0 0 0
0.47789570689201355 -0.45793551206588745 2.5312156677246094 0 0 0
0.5145426392555237 0.3809219002723694 2.6741557121276855 0 0 0
0.5276396870613098 0.4956904649734497 2.683845281600952 0 0 0
0.5113991498947144 -0.25794634222984314 2.5017971992492676 0 0 0
0.5458950996398926 0.5503929853439331 2.685413122177124 0 0 0
0.5458950996398926 0.5503929853439331 2.685413122177124 0 0 0
0.5491716861724854 0.367189884185791 2.6615641117095947 0 0 0
0.5548977851867676 0.47349312901496887 2.673525810241699 0 0 0
0.5560567378997803 0.4931739866733551 2.674102306365967 0 0 0
0.5275983214378357 -0.1829931139945984 2.490399122238159 0 0 0
0.5677798390388489 0.5835551023483276 2.673093557357788 0 0 0
0.5104859471321106 -1.509373664855957 2.3756065368652344 0 0 0
0.5376109480857849 -0.6274758577346802 2.491302728652954 0 0 0
0.5376109480857849 -0.6274758577346802 2.491302728652954 0 0 0
0.5395041704177856 -0.5229808688163757 2.4852545261383057 0 0 0
0.5447925329208374 -0.2788509130477905 2.49816632270813 0 0 0
0.5447925329208374 -0.2788509130477905 2.49816632270813 0 0 0
0.5487877130508423 -0.38239479064941406 2.498649835586548 0 0 0
0.5576903223991394 -0.46372780203819275 2.494584798812866 0 0 0
0.5565780997276306 -0.4390864670276642 2.4956963062286377 0 0 0
0.5617988109588623 -0.5937833786010742 2.47548246383667 0 0 0
0.5647562742233276 -0.4897509515285492 2.4786536693573 0 0 0
0.5677440166473389 -0.5442165732383728 2.4841973781585693 0 0 0
0.614848792552948 0.5282084941864014 2.659992218017578 0 0 0
0.5729546546936035 -0.7637065052986145 2.470445156097412 0 0 0
0.5770130753517151 -0.3405545949935913 2.4847214221954346 0 0 0
0.5774442553520203 -0.14144930243492126 2.477905035018921 0 0 0
0.5777904391288757 -0.0029971094336360693 2.4702374935150146 0 0 0
0.5888749957084656 -0.5230391621589661 2.468712329864502 0 0 0
0.5888749957084656 -0.5230391621589661 2.468712329864502 0 0 0
0.5916787385940552 -0.4861864745616913 2.472559690475464 0 0 0
0.5847930908203125 -1.1297284364700317 2.4376561641693115 0 0 0
0.5847930908203125 -1.1297284364700317 2.4376561641693115 0 0 0
0.5969722270965576 -0.3680573105812073 2.4801039695739746 0 0 0
0.5971444249153137 -0.3296820819377899 2.478729248046875 0 0 0
0.599484384059906 -0.5641221404075623 2.4584264755249023 0 0 0
0.6093654036521912 -0.25902584195137024 2.477144956588745 0 0 0
0.6131779551506042 -0.30574098229408264 2.4769747257232666 0 0 0
0.6130183339118958 -0.5465108752250671 2.453186511993408 0 0 0
0.6645506024360657 0.5523691773414612 2.643951416015625 0 0 0
0.6211633682250977 -0.5294468998908997 2.4564714431762695 0 0 0
0.6653996109962463 0.5360062718391418 2.6416823863983154 0 0 0
0.6214521527290344 -0.6015059351921082 2.4556288719177246 0 0 0
0.6223459243774414 -0.6537433862686157 2.4514312744140625 0 0 0
0.6287219524383545 -0.2460082322359085 2.4721927642822266 0 0 0
0.6313441395759583 -0.4422356188297272 2.4577994346618652 0 0 0
0.6374604105949402 -0.6353670954704285 2.449918270111084 0 0 0
0.6451706886291504 -0.21210536360740662 2.456622838973999 0 0 0
0.6491661667823792 -0.27470067143440247 2.4626965522766113 0 0 0
0.6423291563987732 -0.9371804594993591 2.431098222732544 0 0 0
0.6423291563987732 -0.9371804594993591 2.431098222732544 0 0 0
0.652523934841156 -0.3408426344394684 2.4636268615722656 0 0 0
0.652523934841156 -0.3408426344394684 2.4636268615722656 0 0 0
0.6474332809448242 -0.6627161502838135 2.447939395904541 0 0 0
0.6474332809448242 -0.6627161502838135 2.447939395904541 0 0 0
0.651787519454956 -0.23835813999176025 2.46225643157959 0 0 0
0.6562914848327637 -0.3124338984489441 2.464714288711548 0 0 0
0.6562914848327637 -0.3124338984489441 2.464714288711548 0 0 0
0.6579949259757996 -0.7706283330917358 2.45133900642395 0 0 0
0.7014406323432922 0.19170057773590088 2.6138651371002197 0 0 0
0.6765013337135315 0.009367043152451515 2.4372668266296387 0 0 0
0.7284043431282043 0.19246233999729156 2.60538387298584 0 0 0
0.6964006423950195 -0.6921790242195129 2.429516077041626 0 0 0
0.6960603594779968 -0.7564245462417603 2.423905372619629 0 0 0
0.7082502841949463 -0.1869853436946869 2.4395716190338135 0 0 0
0.7107163667678833 -0.38393738865852356 2.433769941329956 0 0 0
0.7167734503746033 -0.5369038581848145 2.425919771194458 0 0 0
0.7136790156364441 -0.6928402781486511 2.418316125869751 0 0 0
0.7136790156364441 -0.6928402781486511 2.418316125869751 0 0 0
0.7252211570739746 -0.20268985629081726 2.4353108406066895 0 0 0
0.7252211570739746 -0.20268985629081726 2.4353108406066895 0 0 0
0.7332137227058411 -0.5774728655815125 2.4194681644439697 0 0 0
0.7332137227058411 -0.5774728655815125 2.4194681644439697 0 0 0
0.740028440952301 -0.21176248788833618 2.436283826828003 0 0 0
0.7504770159721375 -0.14711037278175354 2.4247586727142334 0 0 0
0.7462167739868164 -0.6877428293228149 2.410764217376709 0 0 0
0.756116509437561 -0.3264099061489105 2.4274754524230957 0 0 0
0.7540239691734314 -0.7503060102462769 2.4044408798217773 0 0 0
0.7629369497299194 -0.44483545422554016 2.41253924369812 0 0 0
0.7618507146835327 -0.7847059965133667 2.403777599334717 0 0 0
0.7808465957641602 -0.23498433828353882 2.412111282348633 0 0 0
0.7859427332878113 -0.07882604002952576 2.4031341075897217 0 0 0
0.7859427332878113 -0.07882604002952576 2.4031341075897217 0 0 0
0.7868694067001343 -0.7536339163780212 2.399343729019165 0 0 0
0.7878910899162292 -0.6721618175506592 2.398348093032837 0 0 0
0.7943664789199829 -0.18652427196502686 2.4176077842712402 0 0 0
0.7903993129730225 -0.5038784146308899 2.400925636291504 0 0 0
0.7980303764343262 -0.3400575816631317 2.3938090801239014 0 0 0
0.8078881502151489 -0.7858260273933411 2.3987877368927 0 0 0
0.8008305430412292 -0.051791008561849594 2.3623111248016357 0 0 0
0.8206852674484253 -0.27472034096717834 2.405917167663574 0 0 0
0.8187055587768555 -0.4683366119861603 2.39367938041687 0 0 0
0.8179864883422852 -0.685058057308197 2.389326810836792 0 0 0
0.819049060344696 -0.8465025424957275 2.3909807205200195 0 0 0
0.8315512537956238 -0.19069872796535492 2.3976094722747803 0 0 0
0.8314386606216431 -0.6374580264091492 2.380890130996704 0 0 0
0.840522289276123 -0.39838069677352905 2.386131525039673 0 0 0
0.8458279371261597 -0.2736555337905884 2.399609088897705 0 0 0
0.8464867472648621 -0.8474165201187134 2.3687336444854736 0 0 0
0.8550004363059998 -0.6103236675262451 2.379326820373535 0 0 0
0.862779974937439 -0.5317841172218323 2.3863065242767334 0 0 0
0.8612949848175049 -0.8026487827301025 2.3784384727478027 0 0 0
0.8605172038078308 -0.825995922088623 2.377833127975464 0 0 0
0.8648205995559692 -0.44780075550079346 2.3812122344970703 0 0 0
0.8648205995559692 -0.44780075550079346 2.3812122344970703 0 0 0
0.8642452955245972 -0.5594394207000732 2.3787825107574463 0 0 0
0.8642452955245972 -0.5594394207000732 2.3787825107574463 0 0 0
0.8734025359153748 -0.329608291387558 2.3835678100585938 0 0 0
0.8612167239189148 -0.11240468174219131 2.332895278930664 0 0 0
0.8801681995391846 -0.8550264239311218 2.3633105754852295 0 0 0
0.885563313961029 -0.5000183582305908 2.368088960647583 0 0 0
0.8763126730918884 -0.16192862391471863 2.327169418334961 0 0 0
0.8953352570533752 -0.5623242855072021 2.37508225440979 0 0 0
0.8937132954597473 -0.778053879737854 2.37185001373291 0 0 0
0.910050630569458 -0.47066962718963623 2.3636152744293213 0 0 0
0.8938496708869934 -0.20968802273273468 2.323746919631958 0 0 0
0.9163748621940613 -0.8088144659996033 2.3681418895721436 0 0 0
0.9139659404754639 -0.43902307748794556 2.355681896209717 0 0 0
0.9026557803153992 -0.014471139758825302 2.3203163146972656 0 0 0
0.9240023493766785 -0.5592632293701172 2.3666789531707764 0 0 0
0.9374861121177673 -0.6273112297058105 2.3492591381073 0 0 0
0.9393506050109863 -0.46962159872055054 2.350127696990967 0 0 0
0.9393506050109863 -0.46962159872055054 2.350127696990967 0 0 0
0.9426153302192688 -0.7941709160804749 2.35433292388916 0 0 0
0.9300848245620728 -0.2552868127822876 2.3141021728515625 0 0 0
0.947181224822998 -0.44412940740585327 2.3458340167999268 0 0 0
0.947181224822998 -0.44412940740585327 2.3458340167999268 0 0 0
0.9490369558334351 -0.4176589548587799 2.3440868854522705 0 0 0
0.9529537558555603 -0.66864413022995 2.34796404838562 0 0 0
0.951154887676239 -0.15071940422058105 2.3224852085113525 0 0 0
0.9620703458786011 -0.3818739950656891 2.332054376602173 0 0 0
0.9699626564979553 -0.6306962370872498 2.3420398235321045 0 0 0
0.9498878121376038 -0.02476077899336815 2.2898032665252686 0 0 0
0.9656904935836792 -0.16524648666381836 2.3162879943847656 0 0 0
0.9689633250236511 -0.13736958801746368 2.323664903640747 0 0 0
0.9736741185188293 -0.18559184670448303 2.3127686977386475 0 0 0
0.9764654636383057 -0.21759909391403198 2.306584596633911 0 0 0
0.9944216012954712 -0.6557920575141907 2.337312698364258 0 0 0
0.9723760485649109 -0.03195401653647423 2.2852580547332764 0 0 0
0.9723760485649109 -0.03195401653647423 2.2852580547332764 0 0 0
0.9948620200157166 -0.537244439125061 2.328779935836792 0 0 0
0.9779021739959717 -0.32362672686576843 2.2888104915618896 0 0 0
0.9937323331832886 -0.7135312557220459 2.326378345489502 0 0 0
0.9834467768669128 -0.07590696960687637 2.2864017486572266 0 0 0
1.0053222179412842 -0.6043329834938049 2.3316195011138916 0 0 0
0.9950825572013855 -0.29051995277404785 2.2896318435668945 0 0 0
1.0044002532958984 -0.1108848825097084 2.2992160320281982 0 0 0
1.0178391933441162 -0.0646170973777771 2.2564048767089844 0 0 0
1.0178391933441162 -0.0646170973777771 2.2564048767089844 0 0 0
1.0308597087860107 -0.2987324893474579 2.279066562652588 0 0 0
1.0279560089111328 -0.42107823491096497 2.2538866996765137 0 0 0
1.0712922811508179 -0.05706838518381119 2.2259762287139893 0 0 0
1.1875613927841187 0.18429197371006012 2.4483041763305664 0 0 0
